<svg width="158" height="475" viewBox="0 0 158 475" fill="none" xmlns="http://www.w3.org/2000/svg">
<path opacity="0.05" d="M461.626 293.204C446.03 222.613 388.654 133.202 392.731 81.8807C395.882 42.1345 307.928 54.6093 271.605 44.0111C250.113 37.7601 148.277 12.4279 123.081 15.9364C32.2782 28.5859 42.1736 173.021 90.3531 277.236C123.423 348.769 167.243 388.967 213.863 404.598C262.156 420.638 334.145 479.591 352.124 441.403C381.99 377.931 479.969 376.203 461.626 293.204Z" stroke="#F15200"/>
<path d="M350.411 248.693C345.556 226.67 304.358 220.044 297.593 188.851C282.211 117.927 272.329 151.136 247.049 147.127C203.637 140.243 190.159 160.497 175.902 189.973C155.443 232.271 208.633 242.394 237.333 271.71C264.173 299.126 298.7 320.732 304.305 308.817C313.617 289.011 356.122 274.587 350.411 248.693Z" stroke="#F15200"/>
<path opacity="0.1" d="M456.335 290.031C440.922 222.406 385.708 136.802 389.429 87.182C391.697 45.9511 307.462 59.4133 271.664 49.1288C249.129 42.8476 151.5 19.6862 126.824 24.4313C39.3719 38.4927 51.3289 176.532 98.5808 277.181C131.354 346.612 174.732 385.925 219.399 400.245C265.835 414.578 336.421 470.036 353.272 432.434C381.599 371.46 474.365 369.473 456.335 290.031Z" stroke="#F15200"/>
<path opacity="0.1" d="M451.037 286.862C435.807 222.203 382.753 140.406 386.12 92.4876C387.506 49.772 306.988 64.2216 271.716 54.2509C248.137 47.9395 154.715 26.9489 130.561 32.9306C46.458 48.4038 60.4766 180.047 106.801 277.129C139.278 344.46 182.212 382.887 224.927 395.895C269.507 408.522 338.688 460.486 354.411 423.469C381.201 364.993 468.752 362.748 451.037 286.862Z" stroke="#F15200"/>
<path opacity="0.2" d="M445.731 283.693C430.684 221.999 379.792 144.01 382.803 97.7924C383.306 53.5921 306.506 69.029 271.76 59.3721C247.137 53.0306 157.923 34.2108 134.289 41.4289C53.5362 58.314 69.6166 183.562 115.013 277.077C147.193 342.307 189.686 379.849 230.447 391.545C273.17 402.465 340.948 450.935 355.543 414.503C380.795 358.525 463.132 356.021 445.731 283.693Z" stroke="#F15200"/>
<path opacity="0.2" d="M440.415 280.526C425.551 221.798 376.82 147.617 379.476 103.101C379.097 57.4156 306.014 73.8398 271.794 64.4967C246.128 58.125 161.121 41.476 138.009 49.9307C60.6052 68.2276 78.7471 187.08 123.216 277.028C155.1 340.157 197.149 376.814 235.957 387.199C276.825 396.411 343.198 441.387 356.665 405.541C380.38 352.061 457.503 349.298 440.415 280.526Z" stroke="#F15200"/>
<path opacity="0.2" d="M435.088 277.359C420.408 221.597 373.838 151.223 376.139 108.408C374.877 61.2384 305.512 78.6501 271.818 69.6207C245.107 63.2188 164.308 48.7407 141.717 58.4319C67.6628 78.1406 87.8664 190.597 131.408 276.979C162.995 338.007 204.602 373.779 241.457 382.851C280.468 390.357 345.438 431.839 357.776 396.578C379.953 345.596 451.862 342.575 435.088 277.359Z" stroke="#F15200"/>
<path opacity="0.3" d="M429.748 274.192C415.251 221.396 370.842 154.83 372.787 113.716C370.643 65.0615 304.996 83.4605 271.828 74.7449C244.073 68.3128 167.482 56.0055 145.411 66.9333C74.7071 88.0538 96.9723 194.114 139.586 276.929C170.876 335.857 212.041 370.743 246.943 378.504C284.098 384.303 347.663 422.29 358.874 387.615C379.513 339.132 446.208 335.851 429.748 274.192Z" stroke="#F15200"/>
<path opacity="0.3" d="M424.392 271.027C410.077 221.196 367.83 158.437 369.42 119.024C366.393 68.8854 304.464 88.2717 271.821 79.8699C243.023 73.4077 170.639 63.2711 149.09 75.4354C81.7351 97.9679 106.062 197.632 147.748 276.881C178.742 333.708 219.464 367.709 252.413 374.158C287.711 378.249 349.873 412.743 359.955 378.653C379.056 332.668 440.538 329.129 424.392 271.027Z" stroke="#F15200"/>
<path opacity="0.4" d="M419.015 267.858C404.883 220.994 364.797 162.042 366.032 124.331C362.123 72.707 303.911 93.0808 271.795 84.9927C241.953 78.5003 173.776 70.5346 152.747 83.9354C88.7425 107.88 115.131 201.148 155.89 276.83C186.587 331.556 226.866 364.672 257.862 369.809C291.305 372.194 352.062 403.194 361.016 369.689C378.58 326.202 434.847 322.404 419.015 267.858Z" stroke="#F15200"/>
<path opacity="0.4" d="M413.613 264.687C399.665 220.788 361.74 165.644 362.62 129.634C357.828 76.5254 303.334 97.8865 271.743 90.1122C240.857 83.5897 176.888 77.7947 156.38 92.4321C95.7254 117.788 124.176 204.661 164.007 276.776C194.407 329.402 234.244 361.632 263.286 365.458C294.873 366.135 354.226 393.641 362.052 360.722C378.078 319.732 429.132 315.676 413.613 264.687Z" stroke="#F15200"/>
<path opacity="0.5" d="M408.179 261.513C394.414 220.58 358.65 169.244 359.175 134.934C353.501 80.3411 302.724 102.69 271.659 95.2291C239.73 88.6763 179.968 85.0522 159.981 100.926C102.676 127.694 133.188 208.171 172.091 276.72C202.195 327.244 241.589 358.589 268.679 361.103C298.409 360.074 356.358 384.085 363.056 351.752C377.544 313.26 423.384 308.945 408.179 261.513Z" stroke="#F15200"/>
<path opacity="0.5" d="M402.703 258.331C389.121 220.364 355.518 172.835 355.687 140.227C349.131 84.1493 302.072 107.485 271.533 100.338C238.56 93.7555 183.006 92.3022 163.54 109.413C109.584 137.592 142.157 211.674 180.133 276.656C209.94 325.079 248.892 355.539 274.029 356.741C301.903 354.005 358.448 374.522 364.018 342.774C376.968 306.781 417.594 302.206 402.703 258.331Z" stroke="#F15200"/>
<path opacity="0.6" d="M397.169 255.141C383.77 220.14 352.328 176.418 352.143 145.511C344.703 87.949 301.362 112.272 271.349 105.439C237.332 98.8261 185.986 99.5437 167.04 117.891C116.434 147.482 151.07 215.168 188.118 276.583C217.628 322.906 256.137 352.48 279.321 352.371C305.339 347.927 360.48 364.951 364.922 333.788C376.334 300.293 411.746 295.46 397.169 255.141Z" stroke="#F15200"/>
<path opacity="0.6" d="M391.555 251.937C378.338 219.902 349.058 179.988 348.517 150.782C340.195 91.7351 300.572 117.046 271.085 110.527C236.024 103.883 188.885 106.772 170.461 126.355C123.204 157.359 159.901 218.648 196.022 276.497C225.235 320.719 263.302 349.408 284.532 347.987C308.694 341.836 362.431 355.365 365.745 324.788C375.62 293.791 405.818 288.699 391.555 251.937Z" stroke="#F15200"/>
<path opacity="0.7" d="M385.821 248.714C372.788 219.644 345.668 183.537 344.772 156.033C335.568 95.501 299.662 121.799 270.701 115.594C234.596 108.92 191.665 113.979 173.762 134.799C129.855 167.215 168.613 222.108 203.807 276.391C232.723 318.512 270.348 346.315 289.625 343.582C311.93 335.725 364.263 345.76 366.449 315.768C374.786 287.269 399.77 281.919 385.821 248.714Z" stroke="#F15200"/>
<path opacity="0.7" d="M379.903 245.454C367.053 219.351 342.095 187.051 340.844 161.248C330.757 99.2314 298.569 126.517 270.134 120.625C232.985 113.921 194.261 121.151 176.879 143.208C136.322 177.035 177.142 225.533 211.408 276.249C240.028 316.269 277.209 343.187 294.533 339.142C314.983 329.579 365.912 336.119 366.969 306.713C373.768 280.712 393.538 275.103 379.903 245.454Z" stroke="#F15200"/>
<path opacity="0.8" d="M373.672 242.139C361.004 219.001 338.208 190.509 336.601 166.407C325.632 102.906 297.161 131.179 269.252 125.601C231.06 118.867 196.543 128.268 179.682 151.561C142.475 186.8 185.356 228.902 218.694 276.051C247.018 313.971 283.757 340.004 299.128 334.647C317.721 323.376 367.246 326.423 367.176 297.601C372.437 274.099 386.993 268.231 373.672 242.139Z" stroke="#F15200"/>
<path opacity="0.8" d="M366.838 238.71C354.354 218.539 333.718 193.854 331.757 171.453C319.905 106.467 295.152 135.727 267.769 130.463C228.533 123.699 198.224 135.271 181.883 159.8C148.026 196.451 192.969 232.158 225.379 275.74C253.406 311.559 289.703 336.707 303.121 330.038C319.858 317.06 367.978 316.613 366.78 288.377C370.503 267.373 379.846 261.245 366.838 238.71Z" stroke="#F15200"/>
<path opacity="0.9" d="M357.185 234.749C344.884 217.543 326.41 196.666 324.093 175.966C311.359 109.495 290.323 139.743 263.466 134.793C223.186 127.998 197.084 141.741 181.265 167.507C150.757 205.57 197.762 234.88 229.245 274.896C256.975 308.614 292.829 332.876 304.294 324.896C319.174 310.211 365.891 306.27 363.565 278.619C365.75 260.113 369.879 253.727 357.185 234.749Z" stroke="#F15200"/>
<path opacity="0.9" d="M346.41 230.578C334.292 216.338 317.979 199.269 315.307 180.27C301.69 112.315 284.372 143.549 258.041 138.913C216.717 132.089 194.823 148.002 179.524 175.005C152.366 214.479 201.433 237.394 231.988 273.843C259.422 305.46 294.833 328.837 304.345 319.545C317.369 303.153 362.682 295.718 359.227 268.653C359.875 252.645 358.79 246 346.41 230.578Z" stroke="#F15200"/>
<path d="M335.33 226.154C323.45 214.933 309.481 201.738 306.475 184.566C291.976 115.126 278.376 147.348 252.571 143.025C210.203 136.171 192.516 154.255 177.739 182.494C153.93 223.38 205.059 239.899 234.686 272.781C261.823 302.298 296.792 324.79 304.351 314.186C315.519 296.087 359.428 285.157 354.845 258.678C353.955 245.168 347.656 238.264 335.59 226.399L335.33 226.154Z" stroke="#F15200"/>
</svg>