<svg width="163" height="539" viewBox="0 0 163 539" fill="none" xmlns="http://www.w3.org/2000/svg">
<path opacity="0.05" d="M223.309 529.678C304.05 495.136 397.829 406.477 460.008 399.764C508.161 394.558 473.427 292.388 477.882 246.64C480.494 219.576 487.756 92.3053 477.883 63.022C442.297 -42.5087 272.127 1.89008 158.603 82.9117C80.6802 138.524 42.5851 199.899 34.445 259.073C26.1948 320.335 -27.9308 419.566 21.7075 432.41C104.209 453.738 128.377 570.3 223.309 529.678Z" stroke="#F15200"/>
<path d="M251.348 386.886C276.54 376.121 275.153 325.451 310.86 310.339C392.047 275.977 350.178 271.674 349.259 240.595C347.683 187.224 320.465 175.705 282.065 165.337C226.96 150.461 226.878 216.234 198.361 257.105C171.692 295.328 153.692 341.415 169.179 345.418C194.921 352.064 221.728 399.545 251.348 386.886Z" stroke="#F15200"/>
<path opacity="0.1" d="M225.903 522.647C303.146 488.992 392.868 403.772 452.936 397.019C502.662 390.424 467.588 292.915 471.787 247.865C474.2 219.549 479.819 97.79 468.588 69.4075C432.073 -31.8064 270.002 13.6102 160.526 92.7199C85.0442 147.505 47.906 208.151 40.891 264.698C34.2595 323.36 -16.0123 420.126 32.6728 431.756C111.845 451.812 135.146 562.091 225.903 522.647Z" stroke="#F15200"/>
<path opacity="0.1" d="M228.49 515.608C302.234 482.84 387.899 401.059 445.856 394.266C497.155 386.283 461.741 293.434 465.685 249.083C467.898 219.514 471.876 103.267 459.286 75.7849C421.841 -21.1122 267.87 25.3223 162.441 102.52C89.4004 156.477 53.2191 216.395 47.3293 270.315C42.3164 326.376 -4.10141 420.678 43.6304 431.093C119.474 449.877 141.907 553.875 228.49 515.608Z" stroke="#F15200"/>
<path opacity="0.2" d="M231.076 508.56C301.321 476.68 382.929 398.337 438.775 391.504C491.648 382.132 455.894 293.944 459.581 250.291C461.595 219.469 463.931 108.734 449.983 82.1533C411.609 -10.4269 265.737 37.0254 164.356 112.311C93.756 165.44 58.5316 224.63 53.7669 275.923C50.3727 329.383 7.80881 421.22 54.5873 430.422C127.102 447.934 148.668 545.65 231.076 508.56Z" stroke="#F15200"/>
<path opacity="0.2" d="M233.657 501.5C300.403 470.508 377.954 395.604 431.689 388.731C486.135 377.971 450.041 294.442 453.473 251.488C455.288 219.414 455.981 114.191 440.675 88.5106C401.371 0.247223 263.599 48.7173 166.266 122.091C98.1064 174.392 63.8388 232.854 60.1993 281.52C58.4237 332.379 19.7138 421.752 65.5391 429.739C134.725 445.979 155.424 537.413 233.657 501.5Z" stroke="#F15200"/>
<path opacity="0.2" d="M236.235 494.427C299.482 464.323 372.976 392.858 424.601 385.944C480.62 373.796 444.186 294.928 447.362 252.672C448.977 219.345 448.029 119.634 431.364 94.8547C391.131 10.9081 261.458 60.3961 168.173 131.858C102.454 183.33 69.1437 241.065 66.6292 287.103C66.4723 335.362 31.6163 422.271 76.4883 429.043C142.346 444.011 162.176 529.163 236.235 494.427Z" stroke="#F15200"/>
<path opacity="0.3" d="M238.81 487.339C298.558 458.122 367.995 390.096 417.509 383.142C475.101 369.605 438.328 295.397 441.248 253.84C442.663 219.26 440.073 125.061 422.05 101.183C380.887 21.5529 259.313 72.0587 170.077 141.609C106.798 192.253 74.4447 249.259 73.0554 292.671C74.5172 338.328 43.5151 422.773 87.4339 428.331C149.962 442.027 168.926 520.897 238.81 487.339Z" stroke="#F15200"/>
<path opacity="0.3" d="M241.38 480.231C297.63 451.902 363.009 387.314 410.412 380.32C469.577 365.395 432.464 295.847 435.128 254.989C436.345 219.156 432.113 130.469 412.731 107.491C370.639 32.1785 257.165 83.7021 171.976 151.34C111.138 201.156 79.7413 257.435 79.4772 298.219C82.5576 341.276 55.4094 423.256 98.3749 427.6C157.575 440.024 175.671 512.612 241.38 480.231Z" stroke="#F15200"/>
<path opacity="0.4" d="M243.949 473.098C296.7 445.657 358.022 384.508 403.315 377.474C464.053 361.16 426.6 296.273 429.008 256.113C430.025 219.028 424.151 135.853 403.411 113.776C360.389 42.7796 255.014 95.321 173.874 161.047C115.477 210.035 85.0367 265.586 85.8976 303.743C90.5967 344.199 67.3025 423.715 109.315 426.844C165.186 437.997 182.414 504.303 243.949 473.098Z" stroke="#F15200"/>
<path opacity="0.4" d="M246.515 465.935C295.767 439.381 353.032 381.671 396.214 374.597C458.525 356.895 420.733 296.668 422.885 257.207C423.702 218.869 416.187 141.206 394.088 120.029C350.137 53.3501 252.862 106.909 175.769 170.724C119.812 218.884 90.3294 273.706 92.3155 309.236C98.6332 347.091 79.1929 424.143 120.252 426.058C172.794 435.938 189.155 495.963 246.515 465.935Z" stroke="#F15200"/>
<path opacity="0.5" d="M249.078 458.733C294.831 433.066 348.039 378.795 389.11 371.68C452.994 352.59 414.862 297.024 416.758 258.261C417.376 218.67 408.219 146.519 384.761 126.243C339.881 63.8812 250.705 118.458 177.66 180.361C124.144 227.693 95.6183 281.787 98.7296 314.689C106.666 349.944 91.0795 424.532 131.185 425.232C180.398 433.841 195.892 487.583 249.078 458.733Z" stroke="#F15200"/>
<path opacity="0.5" d="M251.641 451.478C293.895 426.7 343.046 375.867 382.006 368.712C447.463 348.234 408.991 297.327 410.632 259.263C411.05 218.42 400.251 151.78 375.435 132.406C329.625 74.3602 248.549 129.955 179.552 189.946C128.477 236.45 100.907 289.816 105.144 320.091C114.699 352.745 102.966 424.868 142.119 424.354C188.003 431.691 202.629 479.151 251.641 451.478Z" stroke="#F15200"/>
<path opacity="0.6" d="M254.2 444.153C292.955 420.262 338.049 372.868 374.899 365.673C441.929 343.806 403.118 297.56 404.502 260.195C404.721 218.098 392.28 156.971 366.106 138.497C319.366 84.7684 246.389 141.381 181.44 199.46C132.806 245.136 106.193 297.774 111.555 325.422C122.728 355.475 114.85 425.134 153.049 423.405C195.605 429.47 209.363 470.649 254.2 444.153Z" stroke="#F15200"/>
<path opacity="0.6" d="M256.757 436.728C292.013 413.725 333.05 369.77 367.789 362.535C436.392 339.279 397.241 297.694 398.37 261.027C398.389 217.677 384.306 162.062 356.773 144.489C309.104 95.0774 244.227 152.708 183.326 208.875C137.132 253.722 111.476 305.633 117.963 330.654C130.755 358.106 126.731 425.301 163.977 422.358C203.203 427.151 216.095 462.047 256.757 436.728Z" stroke="#F15200"/>
<path opacity="0.7" d="M259.311 429.157C291.069 407.042 328.048 366.525 360.677 359.25C430.853 334.606 391.362 297.681 392.235 261.712C392.054 217.11 376.329 167.007 347.439 150.335C298.84 105.24 242.062 163.888 185.209 218.143C141.456 262.163 116.757 313.345 124.369 335.739C138.78 360.59 138.609 425.321 174.902 421.163C210.8 424.684 222.824 453.299 259.311 429.157Z" stroke="#F15200"/>
<path opacity="0.7" d="M261.867 421.358C290.126 400.13 323.049 363.052 353.566 355.737C425.315 329.705 385.484 297.44 386.101 262.17C385.722 216.315 368.355 171.724 338.106 155.952C288.578 115.174 239.899 174.841 187.094 227.184C145.781 270.375 122.04 320.83 130.777 340.596C146.806 362.847 150.489 425.113 185.829 419.741C218.398 421.99 229.554 444.323 261.867 421.358Z" stroke="#F15200"/>
<path opacity="0.8" d="M264.418 413.172C289.178 392.832 318.044 359.192 346.45 351.837C419.773 324.417 379.602 296.812 379.963 262.24C379.384 215.133 360.375 176.054 328.768 161.183C278.31 124.722 237.731 185.406 188.974 235.837C150.102 278.2 127.317 327.927 137.179 345.066C154.827 364.716 162.365 424.518 196.751 417.931C225.991 418.909 236.28 434.96 264.418 413.172Z" stroke="#F15200"/>
<path opacity="0.8" d="M266.968 404.242C288.229 384.789 313.038 354.589 339.334 347.193C414.229 318.384 373.719 295.44 373.824 261.567C373.045 213.207 352.395 179.64 319.428 165.67C268.042 133.525 235.562 195.227 190.853 243.746C154.421 285.282 132.593 334.28 143.581 348.792C162.848 365.841 174.239 423.179 207.672 415.378C233.583 415.083 243.004 424.852 266.968 404.242Z" stroke="#F15200"/>
<path opacity="0.9" d="M269.52 391.826C287.283 373.261 308.034 346.499 332.219 339.063C408.688 308.866 367.837 290.582 367.687 257.408C366.708 207.795 344.416 179.74 310.091 166.67C257.775 138.843 233.395 201.563 192.734 248.17C158.743 288.877 137.872 337.148 149.984 349.032C170.87 363.481 186.115 418.354 218.595 409.339C241.177 407.772 249.731 411.259 269.52 391.826Z" stroke="#F15200"/>
<path opacity="0.9" d="M272.067 378.024C286.33 360.346 303.025 337.023 325.099 329.547C403.141 297.962 361.951 284.338 361.544 251.862C360.366 200.996 336.432 178.453 300.749 166.285C247.504 142.774 231.222 206.512 194.609 251.207C163.059 291.086 143.145 338.629 156.383 347.886C178.887 359.734 197.986 412.143 229.512 401.913C248.766 399.075 256.452 396.28 272.067 378.024Z" stroke="#F15200"/>
<path d="M274.847 363.799C285.561 347.087 298.159 327.436 317.978 319.974C397.593 287.001 356.063 278.037 355.401 246.26C354.024 194.141 328.448 177.11 291.406 165.842C237.231 146.649 229.049 211.404 196.484 254.188C167.375 293.239 148.417 340.053 162.78 346.683C186.903 355.931 209.856 405.875 240.429 394.431C256.354 390.321 263.173 381.244 274.613 364.165L274.847 363.799Z" stroke="#F15200"/>
</svg>