<svg width="157" height="446" viewBox="0 0 157 446" fill="none" xmlns="http://www.w3.org/2000/svg">
<path d="M291.408 235.244L291.144 234.82L291.408 235.244ZM183.019 309.879L182.688 310.254L183.019 309.879ZM137.572 260.752L137.473 261.242L137.572 260.752ZM127.117 173.206L126.642 173.048L127.117 173.206ZM202.221 222.332L202.036 222.797L202.221 222.332ZM239.134 162.184L239.055 161.69L239.134 162.184ZM291.144 234.82C288.559 236.434 285.938 239.716 283.214 244.015C280.479 248.331 277.596 253.746 274.509 259.699C268.328 271.621 261.318 285.723 252.966 297.708C244.608 309.703 234.969 319.483 223.576 322.863C212.233 326.229 199.004 323.289 183.349 309.504L182.688 310.254C198.505 324.181 212.08 327.317 223.861 323.822C235.591 320.341 245.396 310.322 253.787 298.28C262.185 286.227 269.23 272.053 275.397 260.159C278.485 254.204 281.349 248.825 284.058 244.55C286.778 240.259 289.297 237.152 291.673 235.668L291.144 234.82ZM183.349 309.504C179.605 306.207 177.719 302.116 176.3 297.626C175.589 295.375 175.001 293.047 174.349 290.663C173.699 288.286 172.988 285.868 172.038 283.479C170.133 278.692 167.265 274.023 161.988 269.98C156.719 265.944 149.08 262.555 137.67 260.262L137.473 261.242C148.787 263.516 156.269 266.859 161.38 270.774C166.483 274.684 169.254 279.189 171.109 283.849C172.038 286.184 172.737 288.559 173.385 290.926C174.03 293.285 174.628 295.652 175.347 297.927C176.789 302.491 178.746 306.783 182.688 310.254L183.349 309.504ZM137.67 260.262C132.063 259.135 128.039 254.927 125.301 248.692C122.562 242.453 121.147 234.256 120.737 225.322C119.918 207.456 123.122 186.801 127.591 173.363L126.642 173.048C122.134 186.602 118.913 207.379 119.738 225.368C120.151 234.36 121.577 242.696 124.386 249.094C127.196 255.495 131.427 260.027 137.473 261.242L137.67 260.262ZM127.591 173.363C129.348 168.081 131.331 164.779 133.467 162.996C135.566 161.244 137.85 160.926 140.361 161.711C142.909 162.507 145.689 164.443 148.679 167.22C151.661 169.99 154.81 173.559 158.101 177.571C164.658 185.565 171.809 195.364 179.178 203.859C186.553 212.361 194.259 219.698 202.036 222.797L202.407 221.868C194.873 218.866 187.303 211.699 179.934 203.204C172.559 194.703 165.499 185.013 158.874 176.937C155.574 172.914 152.391 169.303 149.359 166.487C146.335 163.678 143.422 161.62 140.659 160.757C137.859 159.881 135.213 160.236 132.826 162.228C130.477 164.189 128.42 167.703 126.642 173.048L127.591 173.363ZM202.036 222.797C204.812 223.903 207.209 223.828 209.285 222.775C211.337 221.734 213.006 219.773 214.425 217.246C217.258 212.201 219.218 204.664 221.159 196.847C223.11 188.993 225.046 180.833 227.82 174.416C230.603 167.977 234.15 163.487 239.213 162.677L239.055 161.69C233.443 162.587 229.706 167.532 226.902 174.019C224.087 180.53 222.131 188.787 220.189 196.606C218.238 204.463 216.306 211.854 213.553 216.756C212.179 219.203 210.632 220.97 208.832 221.883C207.056 222.784 204.965 222.887 202.407 221.868L202.036 222.797ZM239.213 162.677C273.545 157.186 297.657 168.382 307.609 184.277C312.585 192.224 314.041 201.363 311.484 210.25C308.927 219.141 302.339 227.826 291.144 234.82L291.673 235.668C303.035 228.57 309.807 219.7 312.445 210.527C315.085 201.351 313.575 191.92 308.457 183.747C298.223 167.402 273.64 156.159 239.055 161.69L239.213 162.677Z" fill="#66DDDD"/>
<path opacity="0.1" d="M385.394 225.792L385.66 226.216L385.394 225.792ZM192.654 413.326L192.323 413.701L192.654 413.326ZM37.9634 322.001L37.8647 322.491L37.9634 322.001ZM18.7605 98.7255L19.235 98.8831L18.7605 98.7255ZM181.345 85.5888L181.531 85.1245L181.345 85.5888ZM275.653 3.30615L275.574 2.81244L275.653 3.30615ZM385.129 225.368C379.399 228.954 374.359 236.589 369.631 246.82C364.892 257.074 360.424 270.033 355.886 284.375C346.804 313.083 337.437 347.35 325.029 376.841C312.612 406.356 297.216 430.915 276.179 440.35C255.22 449.751 228.432 444.217 192.984 412.951L192.323 413.701C227.88 445.064 255.091 450.905 276.589 441.263C298.009 431.655 313.529 406.754 325.951 377.229C338.382 347.681 347.775 313.329 356.84 284.677C361.376 270.339 365.828 257.432 370.538 247.24C375.259 237.025 380.198 229.634 385.66 226.216L385.129 225.368ZM192.984 412.951C184.333 405.321 176.759 397.101 168.63 388.706C160.508 380.317 151.847 371.771 141.057 363.534C119.466 347.053 89.3906 331.842 38.062 321.51L37.8647 322.491C89.0712 332.798 119 347.955 140.45 364.329C151.181 372.52 159.8 381.024 167.912 389.402C176.018 397.773 183.633 406.037 192.323 413.701L192.984 412.951ZM38.062 321.51C25.1783 318.917 16.2304 307.666 10.4033 291.061C4.58145 274.472 1.92758 252.673 1.54807 229.261C0.789124 182.439 9.12784 129.323 19.235 98.8831L18.2859 98.568C8.13867 129.129 -0.212311 182.359 0.548218 229.277C0.928467 252.736 3.58664 274.657 9.45969 291.392C15.3275 308.113 24.4573 319.792 37.8647 322.491L38.062 321.51ZM19.235 98.8831C27.1927 74.9164 36.9766 60.4812 48.1905 52.6804C59.387 44.8916 72.0874 43.6633 86.0141 46.2855C99.9561 48.9106 115.078 55.386 131.067 62.9518C147.036 70.5081 163.869 79.1518 181.16 86.0532L181.531 85.1245C164.279 78.2384 147.504 69.623 131.495 62.0479C115.507 54.4823 100.281 47.9541 86.1991 45.3027C72.1021 42.6485 59.1032 43.8708 47.6194 51.8594C36.1531 59.8359 26.2758 74.5047 18.2859 98.568L19.235 98.8831ZM181.16 86.0532C187.243 88.4813 192.57 89.1379 197.323 88.3805C202.077 87.6229 206.219 85.4572 209.941 82.3054C217.363 76.0219 223.172 65.7695 228.934 54.779C234.715 43.7519 240.46 31.9578 247.765 22.4243C255.061 12.9026 263.865 5.70096 275.732 3.79984L275.574 2.81244C263.359 4.76932 254.351 12.184 246.971 21.8161C239.6 31.4364 233.805 43.3337 228.048 54.3147C222.272 65.3324 216.544 75.4048 209.295 81.5422C205.682 84.601 201.705 86.6696 197.166 87.3929C192.626 88.1164 187.483 87.5003 181.531 85.1245L181.16 86.0532ZM275.732 3.79984C353.237 -8.6167 405.9 30.9458 426.538 81.5127C447.19 132.112 435.773 193.679 385.129 225.368L385.66 226.216C436.802 194.214 448.258 132.083 427.464 81.1349C406.657 30.1543 353.556 -9.68051 275.574 2.81244L275.732 3.79984Z" fill="#66DDDD"/>
<path d="M183.48 314.809C250.188 373.559 274.859 247.936 295.887 234.798C343.701 204.924 313.915 142.938 240.876 154.622C218.251 158.241 223.845 224.837 201.23 215.824C168.778 202.891 136.943 124.607 121.96 169.663C112.445 198.274 108.131 258.708 132.831 263.672C180.997 273.353 167.189 300.461 183.48 314.809Z" stroke="#66DDDD"/>
<path d="M183.942 319.738C254.415 381.814 278.15 248.232 300.365 234.35C350.878 202.786 319.78 134.714 242.617 147.059C218.716 150.883 224.13 218.839 200.239 209.316C165.955 195.65 132.631 118.513 116.803 166.119C106.751 196.35 101.997 261.347 128.091 266.592C178.975 276.82 166.731 304.578 183.942 319.738Z" stroke="#66DDDD"/>
<path d="M184.402 324.666C258.64 390.067 281.44 248.528 304.842 233.903C358.053 200.647 325.642 126.49 244.358 139.496C219.179 143.525 224.414 212.84 199.246 202.807C163.13 188.409 128.318 112.419 111.644 162.575C101.056 194.425 95.8605 263.984 123.349 269.511C176.951 280.287 166.272 308.694 184.402 324.666Z" stroke="#66DDDD"/>
<path opacity="0.9" d="M184.863 329.594C262.866 398.321 284.731 248.824 309.32 233.454C365.23 198.508 331.506 118.265 246.099 131.932C219.644 136.166 224.698 206.84 198.255 196.297C160.307 181.167 124.006 106.323 106.487 159.03C95.3615 192.5 89.7255 266.622 118.608 272.429C174.929 283.753 165.814 312.81 184.863 329.594Z" stroke="#66DDDD"/>
<path opacity="0.9" d="M185.323 334.521C267.091 406.573 288.02 249.119 313.796 233.006C372.404 196.368 337.368 110.039 247.839 124.368C220.106 128.806 224.981 200.84 197.261 189.786C157.482 173.925 119.693 100.228 101.328 155.484C89.6652 190.574 83.5887 269.259 113.865 275.347C172.905 287.219 165.354 316.925 185.323 334.521Z" stroke="#66DDDD"/>
<path opacity="0.8" d="M185.783 339.448C271.316 414.825 291.31 249.413 318.273 232.556C379.58 194.228 343.231 101.813 249.579 116.803C220.569 121.446 225.265 194.839 196.268 183.276C154.657 166.682 115.38 94.1316 96.1689 151.938C83.9695 188.647 77.4525 271.895 109.123 278.264C170.881 290.684 164.894 321.04 185.783 339.448Z" stroke="#66DDDD"/>
<path opacity="0.8" d="M186.241 344.375C275.539 423.077 294.599 249.707 322.748 232.107C386.754 192.088 349.092 93.5865 251.318 109.238C221.031 114.086 225.547 188.838 195.274 176.764C151.831 159.438 111.065 88.0352 91.009 148.392C78.2726 186.721 71.315 274.531 104.38 281.181C168.856 294.15 164.433 325.154 186.241 344.375Z" stroke="#66DDDD"/>
<path opacity="0.7" d="M186.701 349.301C279.764 431.329 297.888 250.001 327.224 231.657C393.928 189.947 354.954 85.3598 253.057 101.672C221.494 106.725 225.83 182.837 194.28 170.253C149.006 152.195 106.752 81.9386 85.8498 144.846C72.5764 184.794 65.1783 277.167 99.6373 284.098C166.832 297.614 163.973 329.268 186.701 349.301Z" stroke="#66DDDD"/>
<path opacity="0.7" d="M187.159 354.227C283.987 439.58 301.176 250.294 331.7 231.207C401.102 187.806 360.815 77.1328 254.796 94.1067C221.956 99.3645 226.112 176.835 193.286 163.741C146.18 144.951 102.437 75.8416 80.6898 141.299C66.8794 182.866 59.0408 279.802 94.8939 287.015C164.807 301.079 163.512 333.382 187.159 354.227Z" stroke="#66DDDD"/>
<path opacity="0.6" d="M187.618 359.153C288.211 447.831 304.465 250.587 336.175 230.756C408.276 185.665 366.676 68.9056 256.535 86.5408C222.418 92.0035 226.394 170.834 192.292 157.23C143.354 137.707 98.1229 69.7444 75.5297 137.752C61.1823 180.939 52.9031 282.438 90.1503 289.931C162.782 304.543 163.051 337.496 187.618 359.153Z" stroke="#66DDDD"/>
<path opacity="0.6" d="M188.076 364.078C292.434 456.082 307.753 250.881 340.65 230.306C415.45 183.523 372.537 60.6783 258.273 78.9748C222.879 84.6423 226.676 164.832 191.297 150.717C140.528 130.463 93.8082 63.6471 70.3694 134.205C55.4849 179.011 46.7652 285.073 85.4066 292.847C160.757 308.007 162.59 341.609 188.076 364.078Z" stroke="#66DDDD"/>
<path opacity="0.5" d="M188.535 369.004C296.658 464.333 311.041 251.173 345.125 229.855C422.624 181.381 378.398 52.4507 260.012 71.4085C223.341 77.2809 226.958 158.83 190.303 144.205C137.702 123.219 89.4938 57.5496 65.2093 130.658C49.7879 177.084 40.6277 287.708 80.6631 295.763C158.732 311.471 162.129 345.723 188.535 369.004Z" stroke="#66DDDD"/>
<path opacity="0.5" d="M188.993 373.929C300.881 472.584 314.329 251.466 349.6 229.404C429.797 179.24 384.259 44.223 261.75 63.842C223.802 69.9193 227.239 152.827 189.308 137.693C134.875 115.974 85.1788 51.4518 60.0487 127.11C44.0902 175.155 34.4895 290.343 75.919 298.679C156.706 314.935 161.668 349.836 188.993 373.929Z" stroke="#66DDDD"/>
<path opacity="0.4" d="M189.451 378.854C305.104 480.834 317.617 251.759 354.074 228.953C436.97 177.098 390.119 35.9952 263.488 56.2755C224.263 62.5576 227.521 146.825 188.313 131.18C132.049 108.73 80.8636 45.354 54.8879 123.562C38.3925 173.227 28.3512 292.977 71.1748 301.595C154.68 318.398 161.206 353.949 189.451 378.854Z" stroke="#66DDDD"/>
<path opacity="0.4" d="M189.908 383.779C309.326 489.085 320.904 252.051 358.549 228.502C444.143 174.956 395.98 27.767 265.226 48.7087C224.724 55.1956 227.802 140.822 187.318 124.667C129.222 101.485 76.5483 39.2559 49.727 120.015C32.6945 171.299 22.2127 295.612 66.4305 304.51C152.655 321.861 160.744 358.061 189.908 383.779Z" stroke="#66DDDD"/>
<path opacity="0.3" d="M190.366 388.704C313.55 497.335 324.192 252.344 363.024 228.05C451.317 172.813 401.84 19.5389 266.965 41.1419C225.186 47.8336 228.083 134.82 186.323 118.155C126.396 94.2401 72.2334 33.1578 44.5664 116.467C26.997 169.37 16.0747 298.246 61.6865 307.425C150.629 325.325 160.283 362.174 190.366 388.704Z" stroke="#66DDDD"/>
<path opacity="0.3" d="M190.824 393.628C317.772 505.585 327.48 252.636 367.498 227.599C458.49 170.671 407.7 11.3107 268.702 33.575C225.646 40.4715 228.364 128.817 185.327 111.642C123.568 86.995 67.9179 27.0595 39.4053 112.919C21.2989 167.442 9.936 300.88 56.942 310.341C148.603 328.788 159.821 366.287 190.824 393.628Z" stroke="#66DDDD"/>
<path opacity="0.2" d="M191.281 398.553C321.995 513.835 330.767 252.928 371.972 227.147C465.662 168.529 413.56 3.08224 270.44 26.0078C226.107 33.1093 228.645 122.814 184.332 105.129C120.741 79.7498 63.6024 20.9612 34.2441 109.37C15.6007 165.513 3.79727 303.514 52.1973 313.256C146.577 332.251 159.359 370.399 191.281 398.553Z" stroke="#66DDDD"/>
<path opacity="0.2" d="M191.739 403.477C326.217 522.085 334.054 253.22 376.446 226.696C472.835 166.386 419.42 -5.14615 272.177 18.4407C226.568 25.747 228.926 116.811 183.336 98.6154C117.914 72.5047 59.2867 14.8627 29.0828 105.822C9.90237 163.584 -2.34155 306.149 47.4526 316.171C144.551 335.714 158.897 374.512 191.739 403.477Z" stroke="#66DDDD"/>
<path opacity="0.1" d="M192.196 408.402C330.44 530.334 337.342 253.512 380.92 226.244C480.008 164.243 425.281 -13.3748 273.915 10.8734C227.029 18.3845 229.207 110.808 182.341 92.1021C115.087 65.2592 54.9714 8.7641 23.922 102.274C4.20453 161.656 -8.47992 308.782 42.7083 319.086C142.525 339.177 158.435 378.624 192.196 408.402Z" stroke="#66DDDD"/>
</svg>