<svg width="137" height="444" viewBox="0 0 137 444" fill="none" xmlns="http://www.w3.org/2000/svg">
<path opacity="0.05" d="M-79.9949 436.208C-13.5285 407.773 63.6705 334.789 114.856 329.263C154.496 324.977 125.903 240.871 129.57 203.211C131.721 180.932 137.698 76.1626 129.571 52.0566C100.277 -34.8165 -39.8078 1.73267 -133.261 68.4297C-197.407 114.21 -228.767 164.734 -235.468 213.446C-242.259 263.877 -286.816 345.564 -245.953 356.137C-178.038 373.695 -158.143 469.648 -79.9949 436.208Z" stroke="#F15200"/>
<path d="M-56.9137 318.662C-36.1754 309.8 -37.3168 268.089 -7.92346 255.648C58.9104 227.361 24.4432 223.819 23.6874 198.235C22.3893 154.299 -0.01651 144.817 -31.6273 136.283C-76.9895 124.036 -77.0572 178.181 -100.533 211.826C-122.486 243.291 -137.304 281.23 -124.555 284.525C-103.364 289.996 -81.2968 329.082 -56.9137 318.662Z" stroke="#F15200"/>
<path opacity="0.1" d="M-77.8595 430.42C-14.2734 402.716 59.5859 332.563 109.034 327.003C149.969 321.575 121.096 241.305 124.552 204.22C126.539 180.91 131.165 80.6777 121.919 57.3132C91.8599 -26.0062 -41.5571 11.3809 -131.678 76.504C-193.815 121.603 -224.387 171.527 -230.162 218.077C-235.621 266.367 -277.005 346.025 -236.927 355.599C-171.752 372.109 -152.571 462.891 -77.8595 430.42Z" stroke="#F15200"/>
<path opacity="0.1" d="M-75.7302 424.626C-15.0243 397.652 55.4952 330.329 103.205 324.737C145.435 318.165 116.283 241.732 119.529 205.222C121.351 180.881 124.625 85.1862 114.261 62.5632C83.437 -17.2026 -43.3125 21.0223 -130.101 84.5716C-190.229 128.989 -220.013 178.314 -224.862 222.7C-228.988 268.85 -267.2 346.479 -227.907 355.053C-165.472 370.516 -147.005 456.127 -75.7302 424.626Z" stroke="#F15200"/>
<path opacity="0.2" d="M-73.6012 418.823C-15.7756 392.58 51.4041 328.088 97.3768 322.463C140.902 314.748 111.469 242.152 114.505 206.217C116.163 180.844 118.085 89.687 106.603 67.8055C75.0137 -8.40668 -45.0684 30.6561 -128.525 92.6315C-186.643 136.367 -215.64 185.093 -219.562 227.317C-222.356 271.325 -257.395 346.926 -218.887 354.5C-159.192 368.916 -141.439 449.356 -73.6012 418.823Z" stroke="#F15200"/>
<path opacity="0.2" d="M-71.4768 413.012C-16.5314 387.499 47.3084 325.839 91.5436 320.18C136.363 311.323 106.651 242.562 109.476 207.202C110.97 180.799 111.541 94.1788 98.9406 73.0388C66.5859 0.38031 -46.8287 40.281 -126.953 100.682C-183.062 143.736 -211.271 191.862 -214.267 231.924C-215.729 273.791 -247.595 347.364 -209.871 353.938C-152.917 367.307 -135.879 442.576 -71.4768 413.012Z" stroke="#F15200"/>
<path opacity="0.2" d="M-69.3543 407.19C-17.2892 382.408 43.2108 323.578 85.7085 317.886C131.823 307.886 101.831 242.962 104.446 208.177C105.775 180.742 104.995 98.6597 91.276 78.2612C58.1562 9.15634 -48.591 49.8949 -125.383 108.723C-179.483 151.095 -206.904 198.622 -208.974 236.52C-209.103 276.247 -237.797 347.79 -200.858 353.365C-146.644 365.687 -130.32 435.784 -69.3543 407.19Z" stroke="#F15200"/>
<path opacity="0.3" d="M-67.2344 401.355C-18.0495 377.303 39.1107 321.304 79.8707 315.579C127.28 304.436 97.0088 243.348 99.4124 209.138C100.578 180.672 98.4456 103.127 83.6088 83.4705C49.7238 17.9193 -50.3559 59.4957 -123.815 116.749C-175.906 158.44 -202.54 205.368 -203.684 241.104C-202.48 278.689 -228.001 348.204 -191.847 352.779C-140.374 364.054 -124.763 428.98 -67.2344 401.355Z" stroke="#F15200"/>
<path opacity="0.3" d="M-65.1185 395.503C-18.8138 372.183 35.0065 319.014 74.0291 313.257C122.734 300.97 92.1823 243.719 94.3753 210.084C95.3764 180.587 91.8927 107.579 75.9376 88.6638C41.2875 26.6662 -52.1247 69.0805 -122.252 124.76C-172.334 165.769 -198.18 212.098 -198.397 245.671C-195.861 281.115 -218.21 348.602 -182.84 352.177C-134.107 362.405 -119.211 422.16 -65.1185 395.503Z" stroke="#F15200"/>
<path opacity="0.4" d="M-63.0043 389.632C-19.5799 367.042 30.9007 316.704 68.1856 310.914C118.185 297.484 87.3541 244.069 89.3365 211.009C90.1734 180.481 85.3381 112.011 68.2647 93.837C32.8495 35.393 -53.8953 78.6452 -120.69 132.751C-168.763 173.078 -193.821 218.807 -193.112 250.218C-189.244 283.522 -208.42 348.979 -173.835 351.555C-127.842 360.736 -113.66 415.319 -63.0043 389.632Z" stroke="#F15200"/>
<path opacity="0.4" d="M-60.8913 383.735C-20.3472 361.876 26.7936 314.369 62.341 308.545C113.635 293.973 82.5248 244.394 84.2965 211.91C84.9691 180.35 78.7823 116.417 60.5907 98.985C24.4103 44.0946 -55.667 88.1847 -119.13 140.717C-165.193 180.362 -189.464 225.492 -187.829 254.74C-182.628 285.903 -198.631 349.332 -164.832 350.908C-121.579 359.042 -108.11 408.454 -60.8913 383.735Z" stroke="#F15200"/>
<path opacity="0.5" d="M-58.7817 377.806C-21.1178 356.678 22.6831 312.001 56.493 306.145C109.082 290.429 77.692 244.687 79.2531 212.777C79.7615 180.186 72.223 120.791 52.9131 104.101C15.9676 52.7639 -57.4422 97.6918 -117.573 148.65C-161.627 187.614 -185.11 232.144 -182.549 259.229C-176.015 288.251 -188.846 349.652 -155.831 350.228C-115.319 357.315 -102.564 401.556 -58.7817 377.806Z" stroke="#F15200"/>
<path opacity="0.5" d="M-56.6725 371.834C-21.8889 351.436 18.5722 309.591 50.6445 303.701C104.529 286.843 72.8588 244.937 74.2092 213.602C74.5534 179.98 65.6634 125.123 45.2353 109.173C7.52457 61.3902 -59.2178 107.156 -116.016 156.54C-158.061 194.822 -180.756 238.754 -177.269 263.676C-169.403 290.557 -179.061 349.929 -146.831 349.505C-109.059 355.545 -97.0187 394.615 -56.6725 371.834Z" stroke="#F15200"/>
<path opacity="0.6" d="M-54.5655 365.804C-22.6622 346.137 14.4592 307.122 44.7939 301.199C99.9732 283.198 68.0234 245.129 69.1632 214.369C69.3432 179.715 59.1016 129.396 37.5552 114.188C-0.920685 69.9583 -60.9956 116.562 -114.461 164.372C-154.498 201.973 -176.405 245.305 -171.991 268.064C-162.793 292.804 -169.279 350.148 -137.833 348.725C-102.801 353.717 -91.4752 387.615 -54.5655 365.804Z" stroke="#F15200"/>
<path opacity="0.6" d="M-52.4606 359.692C-23.4375 340.756 10.344 304.572 38.9412 298.616C95.4154 279.472 63.1859 245.239 64.1151 215.054C64.1308 179.369 52.5376 133.587 29.873 119.12C-9.36802 78.4446 -62.7755 125.886 -112.909 172.123C-150.936 209.041 -172.056 251.774 -166.716 272.371C-156.185 294.97 -159.498 350.285 -128.837 347.862C-96.5458 351.808 -85.9338 380.535 -52.4606 359.692Z" stroke="#F15200"/>
<path opacity="0.7" d="M-50.3577 353.459C-24.2149 335.254 6.22682 301.901 33.0864 295.912C90.8556 275.625 58.3464 245.228 59.065 215.619C58.9165 178.902 45.9717 137.657 22.1888 123.933C-17.8174 86.8105 -64.5573 135.09 -111.359 179.753C-147.376 215.99 -167.708 258.123 -161.442 276.557C-149.579 297.015 -149.72 350.301 -119.843 346.879C-90.2923 349.777 -80.3944 373.333 -50.3577 353.459Z" stroke="#F15200"/>
<path opacity="0.7" d="M-48.2538 347.039C-24.9912 329.564 2.11068 299.042 27.2327 293.02C86.2969 271.59 53.5079 245.03 54.0159 215.995C53.7032 178.248 39.4068 141.54 14.5056 128.557C-26.2657 94.9884 -66.3382 144.106 -109.807 187.195C-143.816 222.75 -163.36 264.284 -156.168 280.556C-142.972 298.873 -139.94 350.13 -110.849 345.708C-84.0378 347.559 -74.854 365.944 -48.2538 347.039Z" stroke="#F15200"/>
<path opacity="0.8" d="M-46.1537 340.3C-25.7713 323.556 -2.00923 295.864 21.3752 289.809C81.7344 267.237 48.6657 244.513 48.963 216.053C48.4861 177.274 32.8382 145.105 6.81867 132.863C-34.7177 102.848 -68.1228 152.803 -108.26 194.318C-140.259 229.192 -159.016 270.127 -150.897 284.235C-136.369 300.411 -130.164 349.64 -101.858 344.218C-77.787 345.023 -69.3173 358.236 -46.1537 340.3Z" stroke="#F15200"/>
<path opacity="0.8" d="M-44.0543 332.949C-26.5521 316.936 -6.12989 292.074 15.517 285.986C77.1711 262.271 43.8227 243.383 43.9094 215.499C43.2683 175.689 26.2687 148.056 -0.869007 136.556C-43.1706 110.095 -69.9082 160.888 -106.713 200.829C-136.703 235.021 -154.672 275.357 -145.627 287.303C-129.767 301.338 -120.389 348.538 -92.8673 342.116C-71.537 341.874 -63.7814 349.916 -44.0543 332.949Z" stroke="#F15200"/>
<path opacity="0.9" d="M-41.9541 322.728C-27.3322 307.446 -10.2498 285.415 9.65959 279.294C72.6086 254.436 38.9805 239.384 38.8566 212.075C38.0512 171.234 19.7001 148.139 -8.55591 137.38C-51.6226 114.472 -71.6927 166.103 -105.165 204.471C-133.146 237.981 -150.327 277.717 -140.356 287.5C-123.163 299.395 -110.613 344.567 -83.8763 337.145C-65.2862 335.855 -58.2447 338.726 -41.9541 322.728Z" stroke="#F15200"/>
<path opacity="0.9" d="M-39.8574 311.366C-28.1158 296.814 -14.3732 277.615 3.79861 271.46C68.0426 245.459 34.1348 234.244 33.8002 207.51C32.8306 165.637 13.1279 147.08 -16.2463 137.063C-60.0782 117.709 -73.4809 170.177 -103.621 206.971C-129.593 239.799 -145.986 278.936 -135.089 286.557C-116.564 296.31 -100.841 339.453 -74.8887 331.032C-59.039 328.696 -52.7115 326.395 -39.8574 311.366Z" stroke="#F15200"/>
<path d="M-37.5684 299.657C-28.7489 285.899 -18.378 269.722 -2.06292 263.58C63.476 236.436 29.2885 229.057 28.7433 202.898C27.6095 159.994 6.55522 145.974 -23.9373 136.698C-68.5343 120.898 -75.2696 174.205 -102.077 209.424C-126.04 241.571 -141.646 280.109 -129.822 285.567C-109.964 293.179 -91.0695 334.294 -65.9017 324.873C-52.7923 321.489 -47.179 314.017 -37.7613 299.957L-37.5684 299.657Z" stroke="#F15200"/>
</svg>