<svg width="232" height="532" viewBox="0 0 232 532" fill="none" xmlns="http://www.w3.org/2000/svg">
<path d="M302.223 475.15C319.917 457.559 324.126 414.346 339.839 406.05C352.006 399.624 343.366 386.249 339.742 373.7C337.593 366.279 326.157 331.907 320.478 325.209C300.01 301.073 269.72 352.495 248.247 385.8C233.508 408.66 210.456 418.311 214.515 434.792L214.567 435.003C218.79 451.943 222 464.818 236.394 463.011C260.415 459.989 281.42 495.836 302.223 475.15Z" stroke="#66DDDD"/>
<path d="M300.265 470.335C319.169 451.541 325.027 406.579 341.815 397.717C354.814 390.852 344.222 375.357 340.351 361.95C338.055 354.022 325.837 317.3 319.77 310.145C297.986 284.457 264.589 336.255 241.654 371.827L241.391 372.234C225.644 396.657 203.368 408.245 207.704 425.853C212.244 444.062 214.783 460.225 230.225 458.286C255.888 455.058 278.04 492.435 300.265 470.335Z" stroke="#66DDDD"/>
<path opacity="0.9" d="M298.308 465.519C318.422 445.522 325.929 398.812 343.791 389.382C357.623 382.078 345.079 364.463 340.96 350.199C338.516 341.763 325.517 302.692 319.062 295.079C295.795 267.643 258.947 320.809 234.536 358.668C217.781 384.654 196.28 398.178 200.894 416.912C205.724 436.286 207.626 455.623 224.056 453.56C251.362 450.125 274.659 489.033 298.308 465.519Z" stroke="#66DDDD"/>
<path opacity="0.8" d="M296.349 460.702C317.673 439.503 326.83 391.043 345.766 381.047C360.43 373.303 345.934 353.569 341.567 338.447C338.977 329.504 325.196 288.083 318.353 280.012C293.687 250.926 253.559 304.965 227.68 345.1C209.917 372.649 189.191 388.11 194.082 407.97C199.202 428.509 200.468 451.02 217.887 448.833C246.834 445.191 271.278 485.63 296.349 460.702Z" stroke="#66DDDD"/>
<path opacity="0.8" d="M294.391 455.884C316.925 433.482 327.731 383.274 347.741 372.71C363.237 364.527 346.789 342.673 342.175 326.693C339.438 317.243 324.876 273.473 317.644 264.944C291.579 234.209 248.172 289.12 220.824 331.532C202.053 360.643 182.102 378.04 187.27 399.028C192.681 420.732 193.31 446.417 211.717 444.105C242.307 440.257 267.897 482.226 294.391 455.884Z" stroke="#66DDDD"/>
<path opacity="0.7" d="M292.432 451.065C316.176 427.46 328.631 375.504 349.716 364.373C366.044 355.75 347.644 331.777 342.783 314.939C339.898 304.982 324.555 258.862 316.934 249.875C289.47 217.49 242.784 273.273 213.968 317.962C194.189 348.637 175.012 367.97 180.459 390.084C186.16 412.953 186.152 441.812 205.547 439.376C237.78 435.321 264.516 478.821 292.432 451.065Z" stroke="#66DDDD"/>
<path opacity="0.7" d="M290.472 446.245C315.426 421.438 329.531 367.733 351.691 356.035C368.851 346.972 348.499 320.88 343.389 303.184C340.358 292.72 324.233 244.251 316.224 234.806C287.361 200.771 237.395 257.427 207.111 304.392C186.323 336.629 167.923 357.9 173.646 381.14C179.638 405.174 178.992 437.207 199.376 434.647C233.251 430.385 261.134 475.416 290.472 446.245Z" stroke="#66DDDD"/>
<path opacity="0.6" d="M288.513 441.425C314.677 415.415 330.431 359.961 353.665 347.696C371.657 338.194 349.353 309.982 343.996 291.429C340.818 280.457 323.911 229.638 315.514 219.736C285.252 184.052 232.007 241.579 200.254 290.822C178.459 324.621 160.833 347.828 166.834 372.195C173.116 397.394 171.834 432.601 193.205 429.917C228.723 425.448 257.752 472.01 288.513 441.425Z" stroke="#66DDDD"/>
<path opacity="0.6" d="M286.553 436.604C313.927 409.391 331.331 352.189 355.639 339.356C374.463 329.415 350.207 299.084 344.603 279.673C341.278 268.194 323.589 215.026 314.804 204.666C283.142 167.331 226.618 225.731 193.396 277.25C170.593 312.613 153.742 337.756 160.021 363.25C166.593 389.614 164.674 427.994 187.034 425.186C224.194 420.51 254.369 468.603 286.553 436.604Z" stroke="#66DDDD"/>
<path opacity="0.5" d="M284.593 431.783C313.177 403.367 332.23 344.416 357.613 331.016C377.269 320.636 351.061 288.185 345.209 267.916C341.737 255.93 323.267 200.412 314.093 189.594C281.032 150.611 221.229 209.882 186.539 263.678C162.728 300.604 146.652 327.684 153.208 354.304C160.071 381.833 157.515 423.387 180.863 420.455C219.666 415.572 250.987 465.196 284.593 431.783Z" stroke="#66DDDD"/>
<path opacity="0.5" d="M282.633 426.961C312.427 397.343 333.13 336.643 359.587 322.676C380.075 311.856 351.915 277.286 345.815 256.159C342.197 243.666 322.944 185.799 313.383 174.523C278.922 133.889 215.84 194.033 179.681 250.106C154.862 288.594 139.562 317.611 146.395 345.358C153.548 374.052 150.355 418.78 174.692 415.723C215.137 410.634 247.604 461.788 282.633 426.961Z" stroke="#66DDDD"/>
<path opacity="0.4" d="M280.672 422.139C311.676 391.318 334.028 328.869 361.559 314.335C382.879 303.076 352.768 266.386 346.421 244.402C342.655 231.401 322.621 171.184 312.671 159.451C276.812 117.168 210.45 178.184 172.822 236.534C146.995 276.584 132.47 307.538 139.581 336.411C147.024 366.27 143.194 414.172 168.519 410.991C210.607 405.695 244.22 458.38 280.672 422.139Z" stroke="#66DDDD"/>
<path opacity="0.4" d="M278.658 417.337C310.872 385.314 334.874 321.116 363.48 306.015C385.632 294.317 353.568 255.507 346.973 232.665C343.061 219.157 322.245 156.591 311.907 144.4C274.648 100.467 205.007 162.355 165.911 222.982C139.076 264.595 125.326 297.485 132.714 327.485C140.448 358.509 135.981 409.585 162.294 406.28C206.024 400.777 240.784 454.993 278.658 417.337Z" stroke="#66DDDD"/>
<path opacity="0.3" d="M276.46 412.609C309.884 379.382 335.535 313.436 365.215 297.768C388.199 285.63 354.184 244.701 347.341 221.001C343.282 206.986 321.685 142.07 310.958 129.421C272.3 83.8387 199.38 146.599 158.815 209.503C130.972 252.679 117.997 287.505 125.663 318.632C133.687 350.821 128.583 405.07 155.885 401.641C201.257 395.932 237.163 451.678 276.46 412.609Z" stroke="#66DDDD"/>
<path opacity="0.3" d="M274.257 407.881C308.891 373.452 336.192 305.758 366.947 289.522C390.763 276.945 354.796 233.897 347.705 209.339C343.499 194.816 321.12 127.551 310.005 114.445C269.948 67.212 193.748 130.845 151.715 196.025C122.864 240.764 110.665 277.527 118.607 309.78C126.922 343.134 121.181 400.558 149.471 397.004C196.486 391.088 233.538 448.365 274.257 407.881Z" stroke="#66DDDD"/>
<path opacity="0.2" d="M272.051 403.155C307.895 367.524 336.845 298.08 368.674 281.278C393.322 268.261 355.403 223.093 348.065 197.678C343.712 182.648 320.551 113.033 309.049 99.4687C267.592 50.5865 188.113 115.091 144.612 182.548C114.752 228.85 103.328 267.55 111.548 300.929C120.153 335.449 113.775 396.046 143.054 392.368C191.711 386.245 229.909 445.053 272.051 403.155Z" stroke="#66DDDD"/>
<path opacity="0.2" d="M269.841 398.43C306.895 361.596 337.494 290.404 370.398 273.034C395.878 259.578 356.007 212.291 348.421 186.018C343.921 170.48 319.979 98.5164 308.088 84.4941C265.232 33.9621 182.474 99.3393 137.504 169.073C106.637 216.938 95.9871 257.574 104.485 292.08C113.38 327.764 106.366 391.535 136.632 387.734C186.932 381.404 226.276 441.742 269.841 398.43Z" stroke="#66DDDD"/>
<path opacity="0.1" d="M267.628 393.706C305.892 355.669 338.14 282.728 372.119 264.792C398.431 250.896 356.608 201.489 348.774 174.358C344.127 158.314 319.404 84.0005 307.124 69.5204C262.869 17.3388 176.832 83.5881 130.393 155.599C98.5181 205.026 88.6438 247.599 97.4189 283.231C106.605 320.081 98.9531 387.026 130.208 383.1C182.15 376.563 222.641 438.433 267.628 393.706Z" stroke="#66DDDD"/>
<path opacity="0.1" d="M265.412 388.983C304.886 349.743 338.784 275.054 373.836 256.55C400.98 242.215 357.206 190.689 349.125 162.7C344.33 146.148 318.825 69.4854 306.158 54.5476C260.503 0.716178 171.187 67.8377 123.28 142.125C90.3965 193.116 81.2974 237.624 90.3499 274.383C99.8262 312.398 91.5375 382.517 123.78 378.467C177.365 371.724 219.002 435.124 265.412 388.983Z" stroke="#66DDDD"/>
<path opacity="0.05" d="M263.194 384.26C303.878 343.818 339.425 267.38 375.552 248.309C403.528 233.535 357.802 179.889 349.473 151.042C344.532 133.983 318.245 54.9708 305.189 39.5752C258.135 -15.9059 165.54 52.0878 116.164 128.652C82.273 181.205 73.949 227.651 83.2789 265.536C93.0456 304.716 84.12 378.008 117.351 373.834C172.578 366.884 215.362 431.815 263.194 384.26Z" stroke="#66DDDD"/>
</svg>