<svg width="129" height="328" viewBox="0 0 129 328" fill="none" xmlns="http://www.w3.org/2000/svg">
<g opacity="0.3">
<path d="M105.507 151.748L47.3538 233.262L-19.5885 297.467L-181 267.192L-120.569 159.658L-109.959 64.7854L7.05784 30.32L105.507 151.748Z" stroke="#004641" stroke-width="2" stroke-miterlimit="10"/>
<path d="M5.42914 35.6062L75.2846 120.586L100.025 151.877L44.7016 230.542L-20.5339 291.259L-175.137 262.605L-117.393 159.436L-106.553 69.0263L5.42914 35.6062Z" stroke="#004F49" stroke-width="2" stroke-miterlimit="10"/>
<path d="M3.80786 40.8937L71.2915 121.78L94.549 152.012L42.0468 227.821L-21.4769 285.05L-169.274 258.024L-114.216 159.22L-103.15 73.2718L3.80786 40.8937Z" stroke="#005852" stroke-width="2" stroke-miterlimit="10"/>
<path d="M2.18072 46.1865L67.2906 122.967L89.0634 152.146L39.394 225.094L-22.4243 278.841L-163.414 253.437L-111.042 158.998L-99.7504 77.5109L2.18072 46.1865Z" stroke="#00615A" stroke-width="2" stroke-miterlimit="10"/>
<path d="M0.554399 51.473L63.2989 124.155L83.5822 152.28L36.7391 222.373L-23.3674 272.633L-157.544 248.852L-107.865 158.783L-96.348 81.7566L0.554399 51.473Z" stroke="#006A63" stroke-width="2" stroke-miterlimit="10"/>
<path d="M-1.06981 56.7605L59.3044 125.343L78.0996 152.409L34.0864 219.653L-24.3084 266.426L-151.684 244.272L-104.691 158.567L-92.9469 85.9962L-1.06981 56.7605Z" stroke="#00736B" stroke-width="2" stroke-miterlimit="10"/>
<path d="M-2.69451 62.0477L55.303 126.536L72.6199 152.544L31.4282 216.932L-25.2548 260.217L-145.822 239.685L-101.516 158.345L-89.5463 90.2356L-2.69451 62.0477Z" stroke="#007C74" stroke-width="2" stroke-miterlimit="10"/>
<path d="M-4.32129 67.334L51.3109 127.724L67.1383 152.678L28.7744 214.205L-26.1983 254.008L-139.959 235.104L-98.3393 158.129L-86.1443 94.4811L-4.32129 67.334Z" stroke="#00857C" stroke-width="2" stroke-miterlimit="10"/>
<path d="M-5.94501 72.6214L47.3119 128.911L61.6546 152.812L26.1222 211.485L-27.1437 247.8L-134.097 230.518L-95.1698 157.912L-82.7428 98.7207L-5.94501 72.6214Z" stroke="#008E84" stroke-width="2" stroke-miterlimit="10"/>
<path d="M-7.57279 77.9077L43.3188 130.099L56.1783 152.942L23.4658 208.763L-28.0883 241.591L-128.23 225.938L-91.9929 157.691L-79.3354 102.962L-7.57279 77.9077Z" stroke="#00978D" stroke-width="2" stroke-miterlimit="10"/>
<path d="M-9.19896 83.2008L39.3223 131.293L50.6937 153.076L20.814 206.037L-29.0347 235.382L-122.369 221.352L-88.8194 157.475L-75.9363 107.207L-9.19896 83.2008Z" stroke="#009F95" stroke-width="2" stroke-miterlimit="10"/>
<path d="M-10.8217 88.4885L35.3243 132.48L45.2111 153.21L18.1578 203.316L-29.9791 229.174L-116.507 216.771L-85.6439 157.259L-72.5337 111.447L-10.8217 88.4885Z" stroke="#00A89E" stroke-width="2" stroke-miterlimit="10"/>
<path d="M-12.4494 93.7742L31.3313 133.668L39.7284 153.344L15.5065 200.596L-30.9236 222.965L-110.644 212.184L-82.467 157.037L-69.1312 115.686L-12.4494 93.7742Z" stroke="#00B1A6" stroke-width="2" stroke-miterlimit="10"/>
<path d="M-14.0732 99.0624L27.3322 134.855L34.2497 153.48L12.8507 197.87L-31.8642 216.759L-104.778 207.606L-79.2926 156.822L-65.7312 119.932L-14.0732 99.0624Z" stroke="#00BAAE" stroke-width="2" stroke-miterlimit="10"/>
<path d="M-15.696 104.35L23.3377 136.049L28.7685 153.608L10.1945 195.148L-32.8086 210.55L-98.9144 203.019L-76.1156 156.6L-62.3287 124.172L-15.696 104.35Z" stroke="#00C3B7" stroke-width="2" stroke-miterlimit="10"/>
<path d="M-17.3237 109.636L19.3446 137.237L23.2859 153.742L7.54322 192.428L-33.7531 204.341L-93.0526 198.438L-72.9402 156.384L-58.9262 128.411L-17.3237 109.636Z" stroke="#00CCBF" stroke-width="2" stroke-miterlimit="10"/>
<path d="M-18.9474 114.923L15.3457 138.424L17.8072 153.877L4.886 189.707L-34.6985 198.132L-87.1902 193.851L-69.7656 156.168L-55.5261 132.656L-18.9474 114.923Z" stroke="#00D5C8" stroke-width="2" stroke-miterlimit="10"/>
<path d="M-20.5732 120.216L11.3511 139.612L12.323 154.011L2.23463 186.98L-35.6445 191.924L-81.3249 189.272L-66.5903 155.946L-52.1201 136.897L-20.5732 120.216Z" stroke="#00DED0" stroke-width="2" stroke-miterlimit="10"/>
<path d="M-22.2009 125.503L7.3516 140.805L6.84184 154.14L-0.421611 184.26L-36.589 185.715L-75.4616 184.686L-63.4148 155.731L-48.7176 141.137L-22.2009 125.503Z" stroke="#00E7D9" stroke-width="2" stroke-miterlimit="10"/>
<path d="M3.35855 141.993L-3.07288 181.54L-37.5334 179.507L-69.5982 180.099L-60.2393 155.515L-23.8236 130.79L3.35855 141.993Z" stroke="#00F0E1" stroke-width="2" stroke-miterlimit="10"/>
</g>
</svg>