<svg width="150" height="605" viewBox="0 0 150 605" fill="none" xmlns="http://www.w3.org/2000/svg">
<path opacity="0.1" d="M-9.58236 390.054L-9.57191 390.554L-9.58236 390.054ZM-271.205 452.276L-271.681 452.428L-271.205 452.276ZM-357.212 294.567L-357.548 294.937L-357.212 294.567ZM-259.248 93.0137L-258.922 93.3922L-259.248 93.0137ZM-112.915 165.076L-112.518 164.772L-112.915 165.076ZM10.2381 142.768L10.4233 142.304L10.2381 142.768ZM-9.59282 389.555C-16.3505 389.696 -24.592 393.668 -33.8966 400.029C-43.2218 406.404 -53.7007 415.241 -64.9486 425.229C-87.4627 445.223 -113.071 469.843 -138.842 488.805C-164.633 507.782 -190.441 520.977 -213.34 518.295C-236.156 515.623 -256.32 497.14 -270.729 452.124L-271.681 452.428C-257.228 497.584 -236.858 516.547 -213.457 519.288C-190.139 522.019 -164.049 508.594 -138.249 489.611C-112.429 470.613 -86.7548 445.932 -64.2845 425.977C-53.0402 415.992 -42.6014 407.191 -33.3323 400.855C-24.0425 394.504 -16.0131 390.689 -9.57191 390.554L-9.59282 389.555ZM-270.729 452.124C-274.245 441.137 -276.535 430.197 -279.212 418.822C-281.886 407.456 -284.941 395.678 -289.984 383.075C-300.074 357.856 -318.1 329.379 -356.876 294.196L-357.548 294.937C-318.864 330.036 -300.936 358.392 -290.912 383.446C-285.897 395.98 -282.856 407.699 -280.185 419.051C-277.516 430.394 -275.214 441.393 -271.681 452.428L-270.729 452.124ZM-356.876 294.196C-366.609 285.365 -368.524 271.118 -365.016 253.874C-361.511 236.646 -352.616 216.568 -340.941 196.272C-317.591 155.68 -283.204 114.348 -258.922 93.3922L-259.575 92.6351C-283.953 113.674 -318.41 155.098 -341.807 195.773C-353.506 216.11 -362.46 236.295 -365.996 253.675C-369.529 271.039 -367.677 285.747 -357.548 294.937L-356.876 294.196ZM-258.922 93.3922C-239.804 76.893 -224.003 69.5138 -210.376 68.5641C-196.77 67.6159 -185.235 73.0715 -174.622 82.4618C-163.996 91.8625 -154.331 105.174 -144.481 119.867C-134.643 134.54 -124.621 150.591 -113.312 165.38L-112.518 164.772C-123.801 150.016 -133.788 134.02 -143.65 119.31C-153.5 104.618 -163.227 91.2077 -173.959 81.7129C-184.703 72.2076 -196.49 66.5939 -210.446 67.5665C-224.38 68.5376 -240.38 76.0694 -259.575 92.6351L-258.922 93.3922ZM-113.312 165.38C-109.334 170.583 -105.097 173.877 -100.627 175.663C-96.1566 177.45 -91.4907 177.713 -86.6789 176.915C-77.0857 175.324 -66.8423 169.499 -56.261 163.016C-45.6444 156.511 -34.6658 149.33 -23.507 144.888C-12.362 140.452 -1.11077 138.782 10.053 143.233L10.4233 142.304C-1.06789 137.723 -12.6025 139.472 -23.8768 143.959C-35.1372 148.441 -46.2113 155.686 -56.7835 162.163C-67.391 168.662 -77.4723 174.375 -86.8425 175.928C-91.5124 176.703 -95.9878 176.44 -100.256 174.735C-104.525 173.028 -108.625 169.863 -112.518 164.772L-113.312 165.38ZM10.053 143.233C82.9658 172.301 107.904 233.266 99.7033 287.263C91.4978 341.295 50.1357 388.305 -9.59282 389.555L-9.57191 390.554C50.7444 389.293 92.4298 341.818 100.692 287.413C108.959 232.974 83.7848 171.551 10.4233 142.304L10.053 143.233Z" fill="#66DDDD"/>
<path opacity="0.9" d="M-234.972 376.388C-203.227 475.383 -107.82 358.229 -78.8293 357.637C-12.9102 356.291 -0.732954 270.105 -81.0714 238.06C-105.957 228.134 -137.845 291.408 -155.146 268.8C-179.973 236.357 -172.776 153.487 -214.836 189.761C-241.546 212.797 -284.38 273.551 -262.558 293.342C-220.004 331.936 -242.725 352.212 -234.972 376.388Z" stroke="#66DDDD"/>
<path opacity="0.9" d="M-237.104 380.854C-203.83 484.634 -105.147 360.169 -74.7562 359.546C-5.65326 358.132 8.51653 266.047 -75.7005 232.457C-101.788 222.052 -134.526 286.401 -152.662 262.701C-178.686 228.691 -173.356 146.042 -217.449 184.072C-245.45 208.223 -291.001 272.669 -268.126 293.417C-223.519 333.874 -245.23 355.509 -237.104 380.854Z" stroke="#66DDDD"/>
<path opacity="0.8" d="M-239.234 385.32C-204.432 493.886 -102.473 362.108 -70.6817 361.455C1.60508 359.972 17.7674 261.989 -70.3283 226.854C-97.6168 215.97 -131.207 281.394 -150.176 256.602C-177.398 221.024 -173.934 138.597 -220.06 178.383C-249.352 203.649 -297.621 271.787 -273.693 293.491C-227.033 335.812 -247.733 358.807 -239.234 385.32Z" stroke="#66DDDD"/>
<path opacity="0.8" d="M-241.366 389.786C-205.036 503.136 -99.8006 364.046 -66.6088 363.364C8.8619 361.812 27.0167 257.931 -64.9575 221.25C-93.4474 209.887 -127.888 276.386 -147.693 250.502C-176.112 213.356 -174.513 131.151 -222.673 172.694C-253.256 199.075 -304.242 270.905 -279.261 293.564C-230.548 337.749 -250.238 362.103 -241.366 389.786Z" stroke="#66DDDD"/>
<path opacity="0.7" d="M-243.497 394.251C-205.639 512.387 -97.127 365.984 -62.5349 365.272C16.1196 363.651 36.2669 253.872 -59.5858 215.645C-89.2772 203.805 -124.569 271.378 -145.208 244.401C-174.825 205.688 -175.092 123.705 -225.285 167.004C-257.16 194.5 -310.863 270.022 -284.828 293.637C-234.062 339.687 -252.742 365.4 -243.497 394.251Z" stroke="#66DDDD"/>
<path opacity="0.7" d="M-245.628 398.715C-206.242 521.637 -94.4539 367.922 -58.4616 367.179C23.3768 365.49 45.5166 249.812 -54.2148 210.041C-85.1075 197.721 -121.251 266.37 -142.724 238.3C-173.538 198.02 -175.671 116.258 -227.898 161.314C-261.063 189.925 -317.484 269.139 -290.396 293.71C-237.576 341.623 -255.247 368.696 -245.628 398.715Z" stroke="#66DDDD"/>
<path opacity="0.6" d="M-247.759 403.18C-206.845 530.886 -91.7805 369.859 -54.3879 369.087C30.6344 367.329 54.7667 245.753 -48.8432 204.436C-80.9374 191.638 -117.932 261.361 -140.239 232.2C-172.251 190.352 -176.25 108.811 -230.51 155.623C-264.967 185.35 -324.104 268.255 -295.964 293.782C-241.091 343.56 -257.751 371.992 -247.759 403.18Z" stroke="#66DDDD"/>
<path opacity="0.6" d="M-249.891 407.644C-207.448 540.136 -89.1075 371.797 -50.3147 370.994C37.8915 369.168 64.0163 241.693 -43.4722 198.831C-76.7678 185.554 -114.613 256.352 -137.755 226.098C-170.965 182.683 -176.829 101.364 -233.122 149.932C-268.871 180.774 -330.725 267.372 -301.532 293.855C-244.605 345.496 -260.256 375.287 -249.891 407.644Z" stroke="#66DDDD"/>
<path opacity="0.5" d="M-252.022 412.108C-208.051 549.385 -86.4342 373.734 -46.2411 372.901C45.149 371.006 73.2663 237.633 -38.1008 193.225C-72.5978 179.47 -111.295 251.343 -135.271 219.997C-169.678 175.014 -177.408 93.9171 -235.735 144.241C-272.774 176.198 -337.346 266.488 -307.1 293.927C-248.12 347.432 -262.76 378.583 -252.022 412.108Z" stroke="#66DDDD"/>
<path opacity="0.5" d="M-254.153 416.572C-208.654 558.634 -83.7613 375.67 -42.1679 374.807C52.4059 372.844 82.5159 233.572 -32.7298 187.62C-68.4283 173.385 -107.976 246.334 -132.787 213.895C-168.391 167.345 -177.987 86.4696 -238.347 138.55C-276.678 171.622 -343.967 265.604 -312.668 293.998C-251.635 349.368 -265.265 381.878 -254.153 416.572Z" stroke="#66DDDD"/>
<path opacity="0.4" d="M-256.284 421.035C-209.257 567.883 -81.088 377.607 -38.0944 376.714C59.6633 374.682 91.7657 229.512 -27.3585 182.014C-64.2584 167.301 -104.657 241.324 -130.303 207.793C-167.104 159.676 -178.566 79.022 -240.96 132.858C-280.581 167.046 -350.588 264.719 -318.235 294.07C-255.149 351.303 -267.769 385.173 -256.284 421.035Z" stroke="#66DDDD"/>
<path opacity="0.4" d="M-258.416 425.499C-209.861 577.131 -78.4152 379.543 -34.0214 378.62C66.9202 376.52 101.015 225.451 -21.9877 176.408C-60.089 161.216 -101.339 236.315 -127.819 201.691C-165.818 152.006 -179.146 71.574 -243.572 127.167C-284.485 162.47 -357.209 263.835 -323.804 294.141C-258.664 353.239 -270.274 388.468 -258.416 425.499Z" stroke="#66DDDD"/>
<path opacity="0.3" d="M-260.547 429.962C-210.464 586.38 -75.742 381.48 -29.9479 380.526C74.1776 378.358 110.265 221.39 -16.6164 170.801C-55.9192 155.131 -98.0204 231.305 -125.335 195.589C-164.531 144.336 -179.725 64.126 -246.185 121.475C-288.389 157.893 -363.829 262.95 -329.371 294.213C-262.178 355.174 -272.778 391.762 -260.547 429.962Z" stroke="#66DDDD"/>
<path opacity="0.3" d="M-262.679 434.425C-211.067 595.628 -73.0693 383.416 -25.8749 382.432C81.4344 380.195 119.514 217.329 -11.2456 165.195C-51.7498 149.046 -94.7022 226.295 -122.851 189.487C-163.244 136.667 -180.304 56.6778 -248.798 115.783C-292.293 153.316 -370.451 262.065 -334.94 294.284C-265.693 357.109 -275.283 395.057 -262.679 434.425Z" stroke="#66DDDD"/>
<path opacity="0.2" d="M-264.81 438.888C-211.671 604.876 -70.3961 385.352 -21.8015 384.338C88.6917 382.032 128.764 213.268 -5.8744 159.589C-47.58 142.961 -91.3835 221.284 -120.367 183.384C-161.958 128.997 -180.883 49.2294 -251.41 110.091C-296.197 148.74 -377.072 261.18 -340.507 294.355C-269.208 359.044 -277.788 398.351 -264.81 438.888Z" stroke="#66DDDD"/>
<path opacity="0.2" d="M-266.942 443.351C-212.274 614.124 -67.7235 387.287 -17.7286 386.243C95.9485 383.869 138.013 209.207 -0.50369 153.982C-43.4107 136.875 -88.0654 216.274 -117.883 177.282C-160.671 121.327 -181.463 41.781 -254.023 104.398C-300.101 144.163 -383.693 260.295 -346.076 294.425C-272.723 360.979 -280.293 401.645 -266.942 443.351Z" stroke="#66DDDD"/>
<path opacity="0.1" d="M-269.073 447.813C-212.877 623.372 -65.0504 389.223 -13.6552 388.149C103.206 385.706 147.263 205.146 4.86753 148.375C-39.2409 130.79 -84.7467 211.264 -115.399 171.179C-159.385 113.656 -182.042 34.3324 -256.635 98.7061C-304.005 139.585 -390.314 259.41 -351.644 294.496C-276.238 362.913 -282.797 404.939 -269.073 447.813Z" stroke="#66DDDD"/>
</svg>